<svg width="547" height="98" viewBox="0 0 547 98" fill="none" xmlns="http://www.w3.org/2000/svg">
<path d="M25.8729 70.92C25.8729 76.232 24.9129 80.616 22.9929 84.072C21.1369 87.528 18.6409 90.216 15.5049 92.136C12.4329 94.12 8.75288 95.816 4.46488 97.224L0.240875 86.088C3.05688 85 5.16888 83.752 6.57688 82.344C7.98488 80.936 8.91288 79.304 9.36088 77.448C9.87288 75.592 10.1289 73.224 10.1289 70.344V14.472H25.8729V70.92Z" fill="black"/>
<path d="M59.7976 28.392C67.6056 28.392 73.7176 30.792 78.1336 35.592C82.5496 40.328 84.7576 46.984 84.7576 55.56C84.7576 61 83.7336 65.768 81.6856 69.864C79.7016 73.896 76.8216 77.032 73.0456 79.272C69.3336 81.512 64.9176 82.632 59.7976 82.632C52.0536 82.632 45.9416 80.264 41.4616 75.528C37.0456 70.728 34.8376 64.04 34.8376 55.464C34.8376 50.024 35.8296 45.288 37.8136 41.256C39.8616 37.16 42.7416 33.992 46.4536 31.752C50.2296 29.512 54.6776 28.392 59.7976 28.392ZM59.7976 39.528C56.7256 39.528 54.4216 40.84 52.8856 43.464C51.3496 46.024 50.5816 50.024 50.5816 55.464C50.5816 61.032 51.3176 65.096 52.7896 67.656C54.3256 70.216 56.6616 71.496 59.7976 71.496C62.8696 71.496 65.1736 70.216 66.7096 67.656C68.2456 65.032 69.0136 61 69.0136 55.56C69.0136 49.992 68.2456 45.928 66.7096 43.368C65.2376 40.808 62.9336 39.528 59.7976 39.528Z" fill="black"/>
<path d="M111.732 28.392C115.38 28.392 118.804 28.936 122.004 30.024C125.204 31.112 128.02 32.648 130.452 34.632L124.884 43.176C120.724 40.552 116.532 39.24 112.308 39.24C110.324 39.24 108.788 39.592 107.7 40.296C106.676 40.936 106.164 41.864 106.164 43.08C106.164 44.04 106.388 44.84 106.836 45.48C107.348 46.056 108.34 46.664 109.812 47.304C111.284 47.944 113.556 48.712 116.628 49.608C121.94 51.144 125.876 53.16 128.436 55.656C131.06 58.088 132.372 61.48 132.372 65.832C132.372 69.288 131.38 72.296 129.396 74.856C127.412 77.352 124.692 79.272 121.236 80.616C117.78 81.96 113.94 82.632 109.716 82.632C105.428 82.632 101.428 81.96 97.7161 80.616C94.0681 79.272 90.9641 77.416 88.4041 75.048L95.7961 66.792C100.084 70.12 104.596 71.784 109.332 71.784C111.636 71.784 113.428 71.368 114.708 70.536C116.052 69.704 116.724 68.52 116.724 66.984C116.724 65.768 116.468 64.808 115.956 64.104C115.444 63.4 114.452 62.76 112.98 62.184C111.508 61.544 109.172 60.776 105.972 59.88C100.916 58.408 97.1401 56.36 94.6441 53.736C92.1481 51.112 90.9001 47.848 90.9001 43.944C90.9001 41 91.7321 38.376 93.3961 36.072C95.1241 33.704 97.5561 31.848 100.692 30.504C103.892 29.096 107.572 28.392 111.732 28.392Z" fill="black"/>
<path d="M184.634 54.504C184.634 56.616 184.538 58.44 184.346 59.976H152.762C153.274 64.264 154.49 67.272 156.41 69C158.33 70.728 160.986 71.592 164.378 71.592C166.426 71.592 168.41 71.24 170.33 70.536C172.25 69.768 174.33 68.616 176.57 67.08L182.81 75.528C176.858 80.264 170.234 82.632 162.938 82.632C154.682 82.632 148.346 80.2 143.93 75.336C139.514 70.472 137.306 63.944 137.306 55.752C137.306 50.568 138.234 45.928 140.09 41.832C141.946 37.672 144.666 34.408 148.25 32.04C151.834 29.608 156.122 28.392 161.114 28.392C168.474 28.392 174.234 30.696 178.394 35.304C182.554 39.912 184.634 46.312 184.634 54.504ZM169.754 50.184C169.626 42.376 166.874 38.472 161.498 38.472C158.874 38.472 156.826 39.432 155.354 41.352C153.946 43.272 153.082 46.44 152.762 50.856H169.754V50.184ZM168.314 0.839996L174.266 12.168L151.61 21.288L147.386 13.512L168.314 0.839996Z" fill="black"/>
<path d="M266.048 14.472L247.52 81H227.936L208.736 14.472H225.344L238.016 68.712L249.92 14.472H266.048Z" fill="black"/>
<path d="M285.854 30.024V81H270.686V30.024H285.854ZM278.174 3.144C280.798 3.144 282.942 3.976 284.606 5.64C286.334 7.24 287.198 9.288 287.198 11.784C287.198 14.28 286.334 16.36 284.606 18.024C282.942 19.624 280.798 20.424 278.174 20.424C275.55 20.424 273.406 19.624 271.742 18.024C270.078 16.36 269.246 14.28 269.246 11.784C269.246 9.288 270.078 7.24 271.742 5.64C273.406 3.976 275.55 3.144 278.174 3.144Z" fill="black"/>
<path d="M327.636 28.392C332.052 28.392 335.508 29.736 338.004 32.424C340.5 35.112 341.748 38.888 341.748 43.752V81H326.58V46.344C326.58 43.784 326.164 42.024 325.332 41.064C324.564 40.04 323.38 39.528 321.78 39.528C318.708 39.528 315.764 41.736 312.948 46.152V81H297.78V30.024H311.028L312.084 36.072C314.26 33.512 316.596 31.592 319.092 30.312C321.652 29.032 324.5 28.392 327.636 28.392Z" fill="black"/>
<path d="M368.354 30.024V81H353.186V30.024H368.354ZM367.682 0.839996L373.634 12.168L350.978 21.288L346.754 13.512L367.682 0.839996Z" fill="black"/>
<path d="M402.36 28.392C405.88 28.392 409.048 28.904 411.864 29.928C414.68 30.952 417.336 32.52 419.832 34.632L413.304 43.656C410.104 41.224 406.872 40.008 403.608 40.008C400.216 40.008 397.656 41.256 395.928 43.752C394.2 46.248 393.336 50.28 393.336 55.848C393.336 61.224 394.2 65.032 395.928 67.272C397.656 69.512 400.152 70.632 403.416 70.632C405.144 70.632 406.712 70.376 408.12 69.864C409.528 69.288 411.224 68.392 413.208 67.176L419.832 76.584C414.776 80.616 409.048 82.632 402.648 82.632C397.464 82.632 392.984 81.544 389.208 79.368C385.432 77.128 382.52 74.024 380.472 70.056C378.424 66.024 377.4 61.32 377.4 55.944C377.4 50.568 378.424 45.8 380.472 41.64C382.52 37.48 385.432 34.248 389.208 31.944C392.984 29.576 397.368 28.392 402.36 28.392Z" fill="black"/>
<path d="M441.386 30.024V81H426.218V30.024H441.386ZM433.706 3.144C436.33 3.144 438.474 3.976 440.138 5.64C441.866 7.24 442.73 9.288 442.73 11.784C442.73 14.28 441.866 16.36 440.138 18.024C438.474 19.624 436.33 20.424 433.706 20.424C431.082 20.424 428.938 19.624 427.274 18.024C425.61 16.36 424.778 14.28 424.778 11.784C424.778 9.288 425.61 7.24 427.274 5.64C428.938 3.976 431.082 3.144 433.706 3.144Z" fill="black"/>
<path d="M496.319 81H483.167L482.495 74.568C478.783 79.944 473.631 82.632 467.039 82.632C462.367 82.632 458.815 81.224 456.383 78.408C454.015 75.592 452.831 71.656 452.831 66.6V30.024H467.999V64.68C467.999 67.176 468.383 68.936 469.151 69.96C469.983 70.92 471.231 71.4 472.895 71.4C476.095 71.4 478.847 69.416 481.151 65.448V30.024H496.319V81Z" fill="black"/>
<path d="M526.201 28.392C529.849 28.392 533.273 28.936 536.473 30.024C539.673 31.112 542.489 32.648 544.921 34.632L539.353 43.176C535.193 40.552 531.001 39.24 526.777 39.24C524.793 39.24 523.257 39.592 522.169 40.296C521.145 40.936 520.633 41.864 520.633 43.08C520.633 44.04 520.857 44.84 521.305 45.48C521.817 46.056 522.809 46.664 524.281 47.304C525.753 47.944 528.025 48.712 531.097 49.608C536.409 51.144 540.345 53.16 542.905 55.656C545.529 58.088 546.841 61.48 546.841 65.832C546.841 69.288 545.849 72.296 543.865 74.856C541.881 77.352 539.161 79.272 535.705 80.616C532.249 81.96 528.409 82.632 524.185 82.632C519.897 82.632 515.897 81.96 512.185 80.616C508.537 79.272 505.433 77.416 502.873 75.048L510.265 66.792C514.553 70.12 519.065 71.784 523.801 71.784C526.105 71.784 527.897 71.368 529.177 70.536C530.521 69.704 531.193 68.52 531.193 66.984C531.193 65.768 530.937 64.808 530.425 64.104C529.913 63.4 528.921 62.76 527.449 62.184C525.977 61.544 523.641 60.776 520.441 59.88C515.385 58.408 511.609 56.36 509.113 53.736C506.617 51.112 505.369 47.848 505.369 43.944C505.369 41 506.201 38.376 507.865 36.072C509.593 33.704 512.025 31.848 515.161 30.504C518.361 29.096 522.041 28.392 526.201 28.392Z" fill="black"/>
</svg>
