<svg width="365" height="65" viewBox="0 0 365 65" fill="none" xmlns="http://www.w3.org/2000/svg">
<path d="M17.4153 47.28C17.4153 50.8213 16.7753 53.744 15.4953 56.048C14.2579 58.352 12.5939 60.144 10.5033 61.424C8.45526 62.7467 6.00192 63.8773 3.14326 64.816L0.327255 57.392C2.20459 56.6667 3.61259 55.8347 4.55126 54.896C5.48992 53.9573 6.10859 52.8693 6.40726 51.632C6.74859 50.3947 6.91926 48.816 6.91926 46.896V9.648H17.4153V47.28Z" fill="black"/>
<path d="M40.0318 18.928C45.2371 18.928 49.3118 20.528 52.2558 23.728C55.1998 26.8853 56.6718 31.3227 56.6718 37.04C56.6718 40.6667 55.9891 43.8453 54.6238 46.576C53.3011 49.264 51.3811 51.3547 48.8638 52.848C46.3891 54.3413 43.4451 55.088 40.0318 55.088C34.8691 55.088 30.7944 53.5093 27.8078 50.352C24.8638 47.152 23.3918 42.6933 23.3918 36.976C23.3918 33.3493 24.0531 30.192 25.3758 27.504C26.7411 24.7733 28.6611 22.6613 31.1358 21.168C33.6531 19.6747 36.6184 18.928 40.0318 18.928ZM40.0318 26.352C37.9838 26.352 36.4478 27.2267 35.4238 28.976C34.3998 30.6827 33.8878 33.3493 33.8878 36.976C33.8878 40.688 34.3784 43.3973 35.3598 45.104C36.3838 46.8107 37.9411 47.664 40.0318 47.664C42.0798 47.664 43.6158 46.8107 44.6398 45.104C45.6638 43.3547 46.1758 40.6667 46.1758 37.04C46.1758 33.328 45.6638 30.6187 44.6398 28.912C43.6584 27.2053 42.1224 26.352 40.0318 26.352Z" fill="black"/>
<path d="M74.6548 18.928C77.0868 18.928 79.3694 19.2907 81.5028 20.016C83.6361 20.7413 85.5134 21.7653 87.1348 23.088L83.4228 28.784C80.6494 27.0347 77.8548 26.16 75.0388 26.16C73.7161 26.16 72.6921 26.3947 71.9668 26.864C71.2841 27.2907 70.9428 27.9093 70.9428 28.72C70.9428 29.36 71.0921 29.8933 71.3908 30.32C71.7321 30.704 72.3934 31.1093 73.3748 31.536C74.3561 31.9627 75.8708 32.4747 77.9188 33.072C81.4601 34.096 84.0841 35.44 85.7908 37.104C87.5401 38.7253 88.4148 40.9867 88.4148 43.888C88.4148 46.192 87.7534 48.1973 86.4308 49.904C85.1081 51.568 83.2948 52.848 80.9908 53.744C78.6868 54.64 76.1268 55.088 73.3108 55.088C70.4521 55.088 67.7854 54.64 65.3108 53.744C62.8788 52.848 60.8094 51.6107 59.1028 50.032L64.0308 44.528C66.8894 46.7467 69.8974 47.856 73.0548 47.856C74.5908 47.856 75.7854 47.5787 76.6388 47.024C77.5348 46.4693 77.9828 45.68 77.9828 44.656C77.9828 43.8453 77.8121 43.2053 77.4708 42.736C77.1294 42.2667 76.4681 41.84 75.4868 41.456C74.5054 41.0293 72.9481 40.5173 70.8148 39.92C67.4441 38.9387 64.9268 37.5733 63.2628 35.824C61.5988 34.0747 60.7668 31.8987 60.7668 29.296C60.7668 27.3333 61.3214 25.584 62.4308 24.048C63.5828 22.4693 65.2041 21.232 67.2948 20.336C69.4281 19.3973 71.8814 18.928 74.6548 18.928Z" fill="black"/>
<path d="M123.256 36.336C123.256 37.744 123.192 38.96 123.064 39.984H102.008C102.35 42.8427 103.16 44.848 104.44 46C105.72 47.152 107.491 47.728 109.752 47.728C111.118 47.728 112.44 47.4933 113.72 47.024C115 46.512 116.387 45.744 117.88 44.72L122.04 50.352C118.072 53.5093 113.656 55.088 108.792 55.088C103.288 55.088 99.0643 53.4667 96.1203 50.224C93.1763 46.9813 91.7043 42.6293 91.7043 37.168C91.7043 33.712 92.3229 30.6187 93.5603 27.888C94.7976 25.1147 96.6109 22.9387 99.0003 21.36C101.39 19.7387 104.248 18.928 107.576 18.928C112.483 18.928 116.323 20.464 119.096 23.536C121.87 26.608 123.256 30.8747 123.256 36.336ZM113.336 33.456C113.251 28.2507 111.416 25.648 107.832 25.648C106.083 25.648 104.718 26.288 103.736 27.568C102.798 28.848 102.222 30.96 102.008 33.904H113.336V33.456ZM112.376 0.559998L116.344 8.112L101.24 14.192L98.4243 9.008L112.376 0.559998Z" fill="black"/>
<path d="M177.532 9.648L165.18 54H152.124L139.324 9.648H150.396L158.844 45.808L166.78 9.648H177.532Z" fill="black"/>
<path d="M190.736 20.016V54H180.624V20.016H190.736ZM185.616 2.096C187.366 2.096 188.795 2.65066 189.904 3.76C191.056 4.82666 191.632 6.192 191.632 7.856C191.632 9.52 191.056 10.9067 189.904 12.016C188.795 13.0827 187.366 13.616 185.616 13.616C183.867 13.616 182.438 13.0827 181.328 12.016C180.219 10.9067 179.664 9.52 179.664 7.856C179.664 6.192 180.219 4.82666 181.328 3.76C182.438 2.65066 183.867 2.096 185.616 2.096Z" fill="black"/>
<path d="M218.591 18.928C221.535 18.928 223.839 19.824 225.503 21.616C227.167 23.408 227.999 25.9253 227.999 29.168V54H217.887V30.896C217.887 29.1893 217.609 28.016 217.055 27.376C216.543 26.6933 215.753 26.352 214.687 26.352C212.639 26.352 210.676 27.824 208.799 30.768V54H198.687V20.016H207.519L208.223 24.048C209.673 22.3413 211.231 21.0613 212.895 20.208C214.601 19.3547 216.5 18.928 218.591 18.928Z" fill="black"/>
<path d="M245.736 20.016V54H235.624V20.016H245.736ZM245.288 0.559998L249.256 8.112L234.152 14.192L231.336 9.008L245.288 0.559998Z" fill="black"/>
<path d="M268.407 18.928C270.753 18.928 272.865 19.2693 274.743 19.952C276.62 20.6347 278.391 21.68 280.055 23.088L275.703 29.104C273.569 27.4827 271.415 26.672 269.239 26.672C266.977 26.672 265.271 27.504 264.119 29.168C262.967 30.832 262.391 33.52 262.391 37.232C262.391 40.816 262.967 43.3547 264.119 44.848C265.271 46.3413 266.935 47.088 269.111 47.088C270.263 47.088 271.308 46.9173 272.247 46.576C273.185 46.192 274.316 45.5947 275.639 44.784L280.055 51.056C276.684 53.744 272.865 55.088 268.599 55.088C265.143 55.088 262.156 54.3627 259.639 52.912C257.121 51.4187 255.18 49.3493 253.815 46.704C252.449 44.016 251.767 40.88 251.767 37.296C251.767 33.712 252.449 30.5333 253.815 27.76C255.18 24.9867 257.121 22.832 259.639 21.296C262.156 19.7173 265.079 18.928 268.407 18.928Z" fill="black"/>
<path d="M294.424 20.016V54H284.312V20.016H294.424ZM289.304 2.096C291.053 2.096 292.482 2.65066 293.592 3.76C294.744 4.82666 295.32 6.192 295.32 7.856C295.32 9.52 294.744 10.9067 293.592 12.016C292.482 13.0827 291.053 13.616 289.304 13.616C287.554 13.616 286.125 13.0827 285.016 12.016C283.906 10.9067 283.352 9.52 283.352 7.856C283.352 6.192 283.906 4.82666 285.016 3.76C286.125 2.65066 287.554 2.096 289.304 2.096Z" fill="black"/>
<path d="M331.046 54H322.278L321.83 49.712C319.356 53.296 315.921 55.088 311.526 55.088C308.412 55.088 306.044 54.1493 304.422 52.272C302.844 50.3947 302.054 47.7707 302.054 44.4V20.016H312.166V43.12C312.166 44.784 312.422 45.9573 312.934 46.64C313.489 47.28 314.321 47.6 315.43 47.6C317.564 47.6 319.398 46.2773 320.934 43.632V20.016H331.046V54Z" fill="black"/>
<path d="M350.967 18.928C353.399 18.928 355.682 19.2907 357.815 20.016C359.949 20.7413 361.826 21.7653 363.447 23.088L359.735 28.784C356.962 27.0347 354.167 26.16 351.351 26.16C350.029 26.16 349.005 26.3947 348.279 26.864C347.597 27.2907 347.255 27.9093 347.255 28.72C347.255 29.36 347.405 29.8933 347.703 30.32C348.045 30.704 348.706 31.1093 349.687 31.536C350.669 31.9627 352.183 32.4747 354.231 33.072C357.773 34.096 360.397 35.44 362.103 37.104C363.853 38.7253 364.727 40.9867 364.727 43.888C364.727 46.192 364.066 48.1973 362.743 49.904C361.421 51.568 359.607 52.848 357.303 53.744C354.999 54.64 352.439 55.088 349.623 55.088C346.765 55.088 344.098 54.64 341.623 53.744C339.191 52.848 337.122 51.6107 335.415 50.032L340.343 44.528C343.202 46.7467 346.21 47.856 349.367 47.856C350.903 47.856 352.098 47.5787 352.951 47.024C353.847 46.4693 354.295 45.68 354.295 44.656C354.295 43.8453 354.125 43.2053 353.783 42.736C353.442 42.2667 352.781 41.84 351.799 41.456C350.818 41.0293 349.261 40.5173 347.127 39.92C343.757 38.9387 341.239 37.5733 339.575 35.824C337.911 34.0747 337.079 31.8987 337.079 29.296C337.079 27.3333 337.634 25.584 338.743 24.048C339.895 22.4693 341.517 21.232 343.607 20.336C345.741 19.3973 348.194 18.928 350.967 18.928Z" fill="black"/>
</svg>
